<svg width="1500" height="1499" viewBox="0 0 1500 1499" fill="none" xmlns="http://www.w3.org/2000/svg">
<circle cx="750" cy="750" r="750" fill="black"/>
<path d="M411.427 956.956C420.61 965.402 430.138 973.953 439.975 982.492C433.598 994.262 427.165 1006.32 420.671 1018.67L384.331 931.451C393.033 939.819 402.08 948.36 411.427 956.956ZM1097.78 833.67C1078.65 810.132 1059.96 788.417 1041.64 768.611C1047.35 748.457 1052.83 727.328 1058.08 705.194C1080.82 609.355 1101.41 542.055 1119.45 497.178C1128.47 474.72 1136.56 458.631 1143.53 447.651C1145.86 443.979 1147.91 441.125 1149.66 438.925C1156.51 453.711 1162.53 479.937 1165.96 514.746C1172.79 584.063 1168.27 675.072 1150.87 744.119C1142.07 779.037 1130.77 805.079 1118.52 820.181C1112.62 827.462 1107.51 830.946 1103.61 832.47C1101.89 833.142 1100 833.604 1097.78 833.67ZM645.653 1046.52C601.61 1028.91 557.79 1000.45 516.553 968.021C550.996 907.155 583.304 856.317 614.254 815.14C666.195 746.036 711.909 707.442 754.233 692.186C794.397 677.709 835.971 682.714 885.184 712.297C912.848 728.926 942.313 753.009 974.18 784.948C933.041 916.273 883.716 990.869 833.935 1029.26C776.016 1073.94 712.367 1073.2 645.653 1046.52Z" stroke="white" stroke-width="60"/>
</svg>
