<svg width="1500" height="1499" viewBox="0 0 1500 1499" fill="none" xmlns="http://www.w3.org/2000/svg">
<circle cx="750" cy="750" r="750" fill="black"/>
<path d="M357.808 981.453C373.793 996.148 390.537 1011 407.914 1025.62C388.634 1060.69 368.884 1098.08 348.581 1137.81L232.062 858.239C240.686 866.763 250.184 876.326 260.511 886.722L262.691 888.917C289.756 916.164 321.968 948.501 357.808 981.453ZM1157.44 876.167C1128.59 840.323 1100.82 808.184 1073.93 779.83C1082.2 751.632 1090.12 721.673 1097.67 689.874C1125.35 573.24 1150.65 490.313 1173.19 434.231C1184.47 406.183 1194.96 385.102 1204.57 369.962C1214.3 354.64 1222.61 346.248 1229.17 342.468C1235.04 339.085 1239.06 339.528 1242.73 341.708C1247.32 344.429 1252.6 350.697 1257.83 361.796C1268.18 383.763 1275.91 419.345 1280.19 462.74C1288.71 549.219 1283.17 662.526 1261.24 749.522C1250.24 793.151 1235.39 829.074 1216.98 851.779C1207.84 863.042 1198.16 870.646 1188.04 874.601C1178.86 878.191 1168.77 878.997 1157.44 876.167ZM613.923 1133.74C551.13 1108.63 489.572 1066.76 433.432 1020.8C479.656 937.719 522.983 868.646 564.614 813.275C628.624 728.14 687.823 676.503 746.3 655.43C804.059 634.617 862.696 643.085 927.432 681.988C966.467 705.445 1007.49 739.854 1051.45 785.272C999.927 956.213 936.134 1056.61 867.868 1109.24C788.115 1170.74 700.435 1168.33 613.923 1133.74Z" stroke="white" stroke-width="20"/>
</svg>
